{"title":"Juicy J Ft. Chris Brown &amp; Wiz Khalifa - Talkin' Bout [Music ","uid":9822819,"size":127158289,"categoryP":"video","categoryS":"music_videos","magnet":"?xt=urn:btih:081d4ca0878b23df6d040b7ecbcb03ad1e8b180a&amp;dn=Juicy+J+Ft.+Chris+Brown+%26amp%3B+Wiz+Khalifa+-+Talkin%27+Bout+%5BMusic+&amp;tr=udp%3A%2F%2Ftracker.openbittorrent.com%3A80&amp;tr=udp%3A%2F%2Fopen.demonii.com%3A1337&amp;tr=udp%3A%2F%2Ftracker.coppersurfer.tk%3A6969&amp;tr=udp%3A%2F%2Fexodus.desync.com%3A6969","seeders":5,"leechers":0,"uploader":"Sbyky","files":1,"time":1395721572,"description":"\n\nGeneral\nComplete name                            : Juicy J Ft. Chris Brown &amp; Wiz Khalifa - Talkin' Bout [Music Video] 1080p [Sbyky].MP4\nFormat                                   : MPEG-4\nFormat profile                           : Base Media\nCodec ID                                 : isom\nFile size                                : 121 MiB\nDuration                                 : 4mn 22s\nOverall bit rate mode                    : Variable\nOverall bit rate                         : 3 876 Kbps\nEncoded date                             : UTC 2014-03-11 00:05:05\nTagged date                              : UTC 2014-03-11 00:05:05\n\nVideo\nID                                       : 1\nFormat                                   : AVC\nFormat/Info                              : Advanced Video Codec\nFormat profile                           : &lt;a class=&quot;__cf_email__&quot; href=&quot;/cdn-cgi/l/email-protection&quot; data-cfemail=&quot;bcf4d5dbd4fcf088928c&quot;&gt;[email&amp;#160;protected]&lt;/a&gt;&lt;script cf-hash='f9e31' type=&quot;text/javascript&quot;&gt;\n/* &lt;![CDATA[ */!function(){try{var t=&quot;currentScript&quot;in document?document.currentScript:function(){for(var t=document.getElementsByTagName(&quot;script&quot;),e=t.length;e--;)if(t[e].getAttribute(&quot;cf-hash&quot;))return t[e]}();if(t&amp;&amp;t.previousSibling){var e,r,n,i,c=t.previousSibling,a=c.getAttribute(&quot;data-cfemail&quot;);if(a){for(e=&quot;&quot;,r=parseInt(a.substr(0,2),16),n=2;a.length-n;n+=2)i=parseInt(a.substr(n,2),16)^r,e+=String.fromCharCode(i);e=document.createTextNode(e),c.parentNode.replaceChild(e,c)}}}catch(u){}}();/* ]]&gt; */&lt;/script&gt;\nFormat settings, CABAC                   : Yes\nFormat settings, ReFrames                : 2 frames\nCodec ID                                 : avc1\nCodec ID/Info                            : Advanced Video Coding\nDuration                                 : 4mn 22s\nBit rate                                 : 3 747 Kbps\nWidth                                    : 1 920 pixels\nHeight                                   : 1 080 pixels\nDisplay aspect ratio                     : 16:9\nFrame rate mode                          : Variable\nFrame rate                               : 23.976 fps\nMinimum frame rate                       : 23.974 fps\nMaximum frame rate                       : 24.463 fps\nColor space                              : YUV\nChroma subsampling                       : 4:2:0\nBit depth                                : 8 bits\nScan type                                : Progressive\nBits/(Pixel*Frame)                       : 0.075\nStream size                              : 117 MiB (97%)\nEncoded date                             : UTC 2014-03-11 00:05:05\nTagged date                              : UTC 2014-03-11 00:05:05\n\nAudio\nID                                       : 2\nFormat                                   : AAC\nFormat/Info                              : Advanced Audio Codec\nFormat profile                           : LC\nCodec ID                                 : 40\nDuration                                 : 4mn 22s\nBit rate mode                            : Variable\nBit rate                                 : 126 Kbps\nChannel(s)                               : 2 channels\nChannel positions                        : Front: L R\nSampling rate                            : 44.1 KHz\nCompression mode                         : Lossy\nStream size                              : 3.93 MiB (3%)\nEncoded date                             : UTC 2014-03-11 00:04:37\nTagged date                              : UTC 2014-03-11 00:04:37\n\nShared By Sbyky\n","torrent":{"xt":"urn:btih:081d4ca0878b23df6d040b7ecbcb03ad1e8b180a","amp;dn":"Juicy+J+Ft.+Chris+Brown+%26amp%3B+Wiz+Khalifa+-+Talkin%27+Bout+%5BMusic+","amp;tr":["udp%3A%2F%2Ftracker.openbittorrent.com%3A80","udp%3A%2F%2Fopen.demonii.com%3A1337","udp%3A%2F%2Ftracker.coppersurfer.tk%3A6969","udp%3A%2F%2Fexodus.desync.com%3A6969"],"infoHash":"081d4ca0878b23df6d040b7ecbcb03ad1e8b180a","infoHashBuffer":{"type":"Buffer","data":[8,29,76,160,135,139,35,223,109,4,11,126,203,203,3,173,30,139,24,10]},"announce":[],"urlList":[]}}